Coordinates
version=1
nRows=38
nColumns=12
inDegrees=yes

Units are S.I. units (second, meters, Newtons, ...)
Angles are in degrees

endheader
time	SC_y	SC_z	SC_x	AC_y	AC_z	AC_x	GH_y	GH_z	GH_yy	EL_x	PS_y
       0.0              -17.13          8.533           18.8           66.9         -15.12          10.25         -43.75          53.06         -169.4          126.1          62.61
    0.0314              -17.13          8.532          18.81           66.9         -15.12          10.25         -43.75          53.06         -169.4          126.1          62.61
    0.0628              -17.14          8.532          18.81           66.9         -15.12          10.26         -43.75          53.07         -169.3          126.1          62.61
   0.09419              -17.14          8.532          18.82           66.9         -15.11          10.26         -43.75          53.07         -169.3          126.0          62.61
    0.1256              -17.15          8.531          18.82           66.9         -15.11          10.26         -43.75          53.08         -169.3          126.0          62.61
     0.157              -17.16          8.531          18.83           66.9         -15.11          10.26         -43.76          53.08         -169.2          126.0           62.6
    0.1884              -17.16           8.53          18.84          66.89         -15.11          10.26         -43.76          53.09         -169.2          126.0           62.6
    0.2198              -17.17           8.53          18.84          66.89         -15.11          10.26         -43.76           53.1         -169.2          126.0           62.6
    0.2512              -17.18          8.529          18.85          66.89         -15.11          10.26         -43.77           53.1         -169.1          126.0          62.59
    0.2826              -17.19          8.529          18.86          66.89         -15.11          10.26         -43.77          53.11         -169.1          126.0          62.59
     0.314               -17.2          8.528          18.87          66.89          -15.1          10.27         -43.77          53.12         -169.0          126.0          62.59
    0.3454               -17.2          8.528          18.88          66.89          -15.1          10.27         -43.78          53.13         -169.0          126.0          62.59
    0.3768              -17.21          8.527          18.89          66.89          -15.1          10.27         -43.78          53.14         -168.9          125.9          62.58
    0.4082              -17.23          8.526           18.9          66.89          -15.1          10.27         -43.79          53.15         -168.9          125.9          62.58
    0.4396              -17.24          8.525          18.91          66.88          -15.1          10.27         -43.79          53.16         -168.8          125.9          62.57
     0.471              -17.25          8.524          18.92          66.88         -15.09          10.28          -43.8          53.17         -168.7          125.9          62.57
    0.5024              -17.27          8.523          18.94          66.88         -15.09          10.28         -43.81          53.19         -168.6          125.9          62.56
    0.5338              -17.28          8.522          18.95          66.88         -15.09          10.28         -43.81           53.2         -168.6          125.8          62.56
    0.5652               -17.3          8.521          18.97          66.88         -15.08          10.28         -43.82          53.22         -168.5          125.8          62.55
    0.5966              -17.32           8.52          18.99          66.87         -15.08          10.29         -43.83          53.24         -168.4          125.8          62.54
     0.628              -17.34          8.519           19.0          66.87         -15.08          10.29         -43.84          53.26         -168.2          125.8          62.54
    0.6594              -17.36          8.517          19.03          66.87         -15.07           10.3         -43.85          53.28         -168.1          125.7          62.53
    0.6908              -17.38          8.516          19.05          66.87         -15.07           10.3         -43.86           53.3         -168.0          125.7          62.52
    0.7222              -17.41          8.514          19.08          66.86         -15.06           10.3         -43.87          53.33         -167.8          125.7          62.51
    0.7536              -17.44          8.512          19.11          66.86         -15.05          10.31         -43.88          53.36         -167.7          125.6           62.5
     0.785              -17.47           8.51          19.14          66.85         -15.05          10.32          -43.9          53.39         -167.5          125.6          62.49
    0.8164              -17.51          8.507          19.18          66.85         -15.04          10.32         -43.91          53.42         -167.3          125.5          62.47
    0.8477              -17.55          8.504          19.22          66.84         -15.03          10.33         -43.93          53.47         -167.1          125.4          62.46
    0.8791               -17.6          8.501          19.26          66.84         -15.02          10.34         -43.96          53.51         -166.8          125.4          62.44
    0.9105              -17.66          8.497          19.32          66.83         -15.01          10.35         -43.98          53.56         -166.5          125.3          62.42
    0.9419              -17.72          8.493          19.38          66.82          -15.0          10.36         -44.01          53.62         -166.2          125.2          62.39
    0.9733              -17.79          8.488          19.45          66.81         -14.98          10.37         -44.04          53.69         -165.8          125.1          62.37
     1.005              -17.87          8.483          19.53           66.8         -14.97          10.39         -44.08          53.77         -165.3          125.0          62.34
     1.036              -17.97          8.476          19.62          66.79         -14.95          10.41         -44.12          53.86         -164.8          124.8           62.3
     1.068              -18.08          8.469          19.73          66.77         -14.92          10.43         -44.17          53.97         -164.2          124.7          62.26
     1.099              -18.21           8.46          19.86          66.76          -14.9          10.45         -44.23           54.1         -163.4          124.5          62.21
      1.13              -18.37           8.45          20.01          66.73         -14.86          10.48          -44.3          54.25         -162.6          124.2          62.15
     1.162              -18.55          8.437          20.19          66.71         -14.83          10.51         -44.38          54.43         -161.6          123.9          62.08
